<svg width="120" height="37" viewBox="0 0 120 37" fill="none" xmlns="http://www.w3.org/2000/svg">
    <path d="M91.3459 10.8577C91.2999 7.71562 94.8263 5.70426 97.6933 7.23726L116.227 17.1473C119.094 18.6803 119.151 22.6079 116.33 24.2169L98.0934 34.6188C95.2723 36.2279 91.6886 34.3117 91.6427 31.1696L91.3459 10.8577Z" fill="#455A64"/>
    <path opacity="0.9" d="M102.38 7.71645C104.822 5.61497 108.726 6.83069 109.407 9.90473L113.349 27.6928C114.03 30.7669 110.978 33.3937 107.855 32.4212L89.7832 26.7933C86.6601 25.8208 85.8086 21.9782 88.2504 19.8767L102.38 7.71645Z" fill="#BEEE43"/>
    <path d="M98.0613 11.9327C99.7034 9.21135 103.809 9.21135 105.451 11.9327L111.548 22.0359C113.19 24.7573 111.137 28.159 107.853 28.159H95.6596C92.3752 28.159 90.3225 24.7573 91.9647 22.0359L98.0613 11.9327Z" fill="white"/>
    <path fill-rule="evenodd" clip-rule="evenodd" d="M10.6662 9.93009C4.77541 9.93009 0 14.4991 0 20.1353V30.5446H4.69311V20.1353C4.69311 16.979 7.36734 14.4204 10.6662 14.4204V9.93009ZM62.6707 10.5787C60.9485 10.5787 59.3024 11.2573 58.1194 12.4547C54.3746 16.2455 57.1295 22.4867 62.5806 22.5618L65.5421 22.6026C67.4165 22.6284 68.0102 25.0339 66.3459 25.8593C66.0792 25.9915 65.7822 26.058 65.4819 26.0525L57.3 25.9036L57.2108 30.3931L65.3926 30.542C66.4747 30.5617 67.5447 30.3224 68.5056 29.8459C74.5017 26.8723 72.3626 18.2057 65.6096 18.1127L62.6481 18.072C61.2821 18.0532 60.5917 16.4891 61.5301 15.5391C61.8266 15.239 62.2391 15.069 62.6707 15.069H70.8238V10.5787H62.6707ZM14.9331 19.9312C14.9331 14.4079 19.6126 9.93043 25.3852 9.93009V14.4204C22.2045 14.4207 19.6262 16.8879 19.6262 19.9312V30.5446H14.9331V19.9312ZM33.4918 13.617C31.5752 11.3672 28.6559 9.93029 25.3859 9.93009V14.4204C28.5666 14.4207 31.1449 16.8879 31.1449 19.9312V30.5446H31.1455H35.838H35.8386V19.9312C35.8386 16.8877 38.4174 14.4204 41.5984 14.4204V9.93009C38.3281 9.93009 35.4085 11.367 33.4918 13.617ZM41.5985 9.93009C47.3715 9.93009 52.0514 14.4077 52.0514 19.9312V30.5446H47.3583V19.9312C47.3583 16.8877 44.7795 14.4204 41.5985 14.4204V9.93009Z" fill="#455A64"/>
</svg>
