<svg width="18" height="19" viewBox="0 0 18 19" fill="none" xmlns="http://www.w3.org/2000/svg">
    <path d="M12.3728 0.253735C12.3728 0.151331 12.4351 0.0590506 12.5307 0.0195055C12.6263 -0.0200396 12.7362 0.00175285 12.8093 0.0742598L17.9254 5.14619C17.9729 5.19384 18 5.25824 18 5.32566C18 5.39309 17.9729 5.45749 17.9249 5.50514L12.8088 10.5624C12.7357 10.6349 12.6258 10.6562 12.5302 10.6171C12.4352 10.5776 12.3728 10.4853 12.3728 10.3829V7.59445L0.5 7.59445C0.223858 7.59445 0 7.37059 0 7.09445L0 3.53152C0 3.25538 0.223858 3.03152 0.500001 3.03152L12.3728 3.03152V0.253735Z" fill="#5A6B73"/>
    <path d="M1.58936 14.7451H1.12549V16H0.268555V12.4453H1.66748C2.08903 12.4453 2.41862 12.5389 2.65625 12.7261C2.89388 12.9133 3.0127 13.1778 3.0127 13.5196C3.0127 13.767 2.96224 13.972 2.86133 14.1348C2.76204 14.2976 2.60579 14.4294 2.39258 14.5303L3.13477 15.9634V16H2.2168L1.58936 14.7451ZM1.12549 14.0835H1.66748C1.83024 14.0835 1.95231 14.0412 2.03369 13.9566C2.1167 13.8703 2.1582 13.7507 2.1582 13.5977C2.1582 13.4447 2.1167 13.3251 2.03369 13.2388C1.95068 13.1509 1.82861 13.107 1.66748 13.107H1.12549V14.0835ZM6.32486 14.4937H4.97721V15.3409H6.569V16H4.12027V12.4453H6.57389V13.107H4.97721V13.8565H6.32486V14.4937ZM8.63361 12.4453L9.42707 14.9185L10.2181 12.4453H11.346V16H10.4866V15.17L10.5696 13.4707L9.71027 16H9.14387L8.28205 13.4683L8.36506 15.17V16H7.50812V12.4453H8.63361ZM13.396 16H12.5415V12.4453H13.396V16ZM17.299 13.107H16.2321V16H15.3751V13.107H14.3278V12.4453H17.299V13.107Z" fill="#5A6B73"/>
</svg>
