<svg width="18" height="18" viewBox="0 0 18 18" fill="none" xmlns="http://www.w3.org/2000/svg">
    <path d="M1 0C0.447716 0 0 0.447715 0 1V17C0 17.5523 0.447715 18 1 18H17C17.5523 18 18 17.5523 18 17V1C18 0.447716 17.5523 0 17 0H1ZM15 14.5C15 14.7761 14.7761 15 14.5 15H3.5C3.22386 15 3 14.7761 3 14.5C3 14.2239 3.22386 14 3.5 14H14.5C14.7761 14 15 14.2239 15 14.5ZM15 12.5C15 12.7761 14.7761 13 14.5 13H3.5C3.22386 13 3 12.7761 3 12.5C3 12.2239 3.22386 12 3.5 12H14.5C14.7761 12 15 12.2239 15 12.5ZM15 8C15 8.55228 14.5523 9 14 9H4C3.44772 9 3 8.55228 3 8V4C3 3.44772 3.44772 3 4 3H14C14.5523 3 15 3.44772 15 4V8Z" fill="#5A6B73"/>
</svg>
